<svg xmlns="http://www.w3.org/2000/svg" xmlns:xlink="http://www.w3.org/1999/xlink" width="2000" zoomAndPan="magnify" viewBox="0 0 1500 1499.999933" height="2000" preserveAspectRatio="xMidYMid meet" version="1.2"><defs><clipPath id="23a2209c75"><path d="M 22.871094 22.871094 L 1477.128906 22.871094 L 1477.128906 1477.128906 L 22.871094 1477.128906 Z M 22.871094 22.871094 "/></clipPath><clipPath id="c6aea6a5d4"><path d="M 750 22.871094 C 348.417969 22.871094 22.871094 348.417969 22.871094 750 C 22.871094 1151.582031 348.417969 1477.128906 750 1477.128906 C 1151.582031 1477.128906 1477.128906 1151.582031 1477.128906 750 C 1477.128906 348.417969 1151.582031 22.871094 750 22.871094 Z M 750 22.871094 "/></clipPath><clipPath id="f83ae86a7f"><path d="M 0.871094 0.871094 L 1455.128906 0.871094 L 1455.128906 1455.128906 L 0.871094 1455.128906 Z M 0.871094 0.871094 "/></clipPath><clipPath id="aa60a47eda"><path d="M 728 0.871094 C 326.417969 0.871094 0.871094 326.417969 0.871094 728 C 0.871094 1129.582031 326.417969 1455.128906 728 1455.128906 C 1129.582031 1455.128906 1455.128906 1129.582031 1455.128906 728 C 1455.128906 326.417969 1129.582031 0.871094 728 0.871094 Z M 728 0.871094 "/></clipPath><clipPath id="abae23d3a1"><rect x="0" width="1456" y="0" height="1456"/></clipPath><clipPath id="cba5efaa9f"><path d="M 98.917969 98.917969 L 1401.082031 98.917969 L 1401.082031 1401.082031 L 98.917969 1401.082031 Z M 98.917969 98.917969 "/></clipPath><clipPath id="9325878c53"><path d="M 750 98.917969 C 390.417969 98.917969 98.917969 390.417969 98.917969 750 C 98.917969 1109.582031 390.417969 1401.082031 750 1401.082031 C 1109.582031 1401.082031 1401.082031 1109.582031 1401.082031 750 C 1401.082031 390.417969 1109.582031 98.917969 750 98.917969 Z M 750 98.917969 "/></clipPath><clipPath id="23ba718abe"><path d="M 0.917969 0.917969 L 1303.082031 0.917969 L 1303.082031 1303.082031 L 0.917969 1303.082031 Z M 0.917969 0.917969 "/></clipPath><clipPath id="9e30122b70"><path d="M 652 0.917969 C 292.417969 0.917969 0.917969 292.417969 0.917969 652 C 0.917969 1011.582031 292.417969 1303.082031 652 1303.082031 C 1011.582031 1303.082031 1303.082031 1011.582031 1303.082031 652 C 1303.082031 292.417969 1011.582031 0.917969 652 0.917969 Z M 652 0.917969 "/></clipPath><clipPath id="bc1d8771f8"><rect x="0" width="1304" y="0" height="1304"/></clipPath></defs><g id="ca85ee010b"><g clip-rule="nonzero" clip-path="url(#23a2209c75)"><g clip-rule="nonzero" clip-path="url(#c6aea6a5d4)"><g transform="matrix(1,0,0,1,22,22)"><g clip-path="url(#abae23d3a1)"><g clip-rule="nonzero" clip-path="url(#f83ae86a7f)"><g clip-rule="nonzero" clip-path="url(#aa60a47eda)"><path style=" stroke:none;fill-rule:nonzero;fill:#ffffff;fill-opacity:1;" d="M 0.871094 0.871094 L 1455.128906 0.871094 L 1455.128906 1455.128906 L 0.871094 1455.128906 Z M 0.871094 0.871094 "/></g></g></g></g></g></g><g clip-rule="nonzero" clip-path="url(#cba5efaa9f)"><g clip-rule="nonzero" clip-path="url(#9325878c53)"><g transform="matrix(1,0,0,1,98,98)"><g clip-path="url(#bc1d8771f8)"><g clip-rule="nonzero" clip-path="url(#23ba718abe)"><g clip-rule="nonzero" clip-path="url(#9e30122b70)"><path style=" stroke:none;fill-rule:nonzero;fill:#00bf63;fill-opacity:1;" d="M 0.917969 0.917969 L 1303.082031 0.917969 L 1303.082031 1303.082031 L 0.917969 1303.082031 Z M 0.917969 0.917969 "/></g></g></g></g></g></g><g style="fill:#ffffff;fill-opacity:1;"><g transform="translate(96.013062, 1321.141141)"><path style="stroke:none" d="M 697.359375 -237.578125 C 737.421875 -237.578125 776.316406 -243.628906 814.046875 -255.734375 C 851.785156 -267.847656 879.503906 -279.5 897.203125 -290.6875 L 923.75 -308.84375 L 1035.5625 -85.25 C 1031.832031 -82.457031 1026.707031 -78.726562 1020.1875 -74.0625 C 1013.664062 -69.40625 998.523438 -60.785156 974.765625 -48.203125 C 951.003906 -35.628906 925.613281 -24.679688 898.59375 -15.359375 C 871.582031 -6.046875 836.179688 2.332031 792.390625 9.78125 C 748.597656 17.238281 703.410156 20.96875 656.828125 20.96875 C 549.691406 20.96875 448.140625 -5.347656 352.171875 -57.984375 C 256.210938 -110.628906 178.882812 -183.070312 120.1875 -275.3125 C 61.488281 -367.550781 32.140625 -467.238281 32.140625 -574.375 C 32.140625 -655.4375 49.375 -733.234375 83.84375 -807.765625 C 118.320312 -882.296875 164.207031 -946.113281 221.5 -999.21875 C 278.800781 -1052.320312 345.648438 -1094.710938 422.046875 -1126.390625 C 498.441406 -1158.066406 576.703125 -1173.90625 656.828125 -1173.90625 C 731.367188 -1173.90625 800.082031 -1165.054688 862.96875 -1147.359375 C 925.851562 -1129.660156 970.335938 -1111.957031 996.421875 -1094.25 L 1035.5625 -1067.703125 L 923.75 -844.09375 C 917.226562 -849.6875 907.445312 -856.441406 894.40625 -864.359375 C 881.363281 -872.285156 855.273438 -882.769531 816.140625 -895.8125 C 777.015625 -908.851562 737.421875 -915.375 697.359375 -915.375 C 634.003906 -915.375 577.171875 -905.125 526.859375 -884.625 C 476.546875 -864.125 436.71875 -837.101562 407.375 -803.5625 C 378.03125 -770.03125 355.671875 -733.929688 340.296875 -695.265625 C 324.921875 -656.597656 317.234375 -617.234375 317.234375 -577.171875 C 317.234375 -489.597656 350.070312 -411.101562 415.75 -341.6875 C 481.4375 -272.28125 575.304688 -237.578125 697.359375 -237.578125 Z M 697.359375 -237.578125 "/></g></g><path style=" stroke:none;fill-rule:nonzero;fill:#ffffff;fill-opacity:1;" d="M 750 873.730469 C 681.664062 873.730469 626.269531 818.335938 626.269531 750 C 626.269531 681.664062 681.664062 626.269531 750 626.269531 C 818.335938 626.269531 873.730469 681.664062 873.730469 750 C 873.730469 818.335938 818.335938 873.730469 750 873.730469 Z M 1033.800781 692.152344 L 978.40625 685.59375 C 973.402344 667.796875 966.304688 650.472656 957.070312 634.011719 L 991.585938 590.230469 C 997.347656 582.921875 996.726562 572.460938 990.148438 565.890625 L 934.109375 509.851562 C 927.539062 503.273438 917.078125 502.652344 909.769531 508.414062 L 865.988281 542.929688 C 849.527344 533.695312 832.199219 526.597656 814.40625 521.59375 L 807.851562 466.195312 C 806.753906 456.957031 798.925781 450 789.621094 450 L 710.375 450 C 701.074219 450 693.246094 456.957031 692.152344 466.195312 L 685.59375 521.59375 C 667.796875 526.597656 650.472656 533.695312 634.011719 542.929688 L 590.222656 508.414062 C 582.921875 502.652344 572.460938 503.273438 565.882812 509.851562 L 509.851562 565.890625 C 503.273438 572.460938 502.652344 582.921875 508.414062 590.230469 L 542.929688 634.011719 C 533.695312 650.472656 526.589844 667.796875 521.59375 685.59375 L 466.195312 692.152344 C 456.957031 693.246094 450 701.074219 450 710.375 L 450 789.621094 C 450 798.925781 456.957031 806.753906 466.195312 807.851562 L 521.59375 814.40625 C 526.589844 832.199219 533.695312 849.527344 542.929688 865.988281 L 508.414062 909.769531 C 502.652344 917.078125 503.273438 927.539062 509.851562 934.109375 L 565.882812 990.148438 C 572.460938 996.726562 582.921875 997.347656 590.222656 991.585938 L 634.011719 957.070312 C 650.472656 966.304688 667.796875 973.402344 685.59375 978.40625 L 692.152344 1033.800781 C 693.246094 1043.042969 701.074219 1050 710.375 1050 L 788.308594 1050 C 797.445312 1050 805.191406 1043.277344 806.480469 1034.226562 L 814.40625 978.40625 C 832.199219 973.402344 849.527344 966.304688 865.988281 957.070312 L 909.769531 991.585938 C 917.078125 997.347656 927.539062 996.726562 934.109375 990.148438 L 990.148438 934.109375 C 996.726562 927.539062 997.347656 917.078125 991.585938 909.769531 L 957.070312 865.988281 C 966.304688 849.527344 973.402344 832.199219 978.40625 814.40625 L 1033.800781 807.851562 C 1043.042969 806.753906 1050 798.925781 1050 789.621094 L 1050 710.375 C 1050 701.074219 1043.042969 693.246094 1033.800781 692.152344 "/></g></svg>